IKResults
version=1
nRows=7
nColumns=63
inDegrees=yes

Units are S.I. units (second, meters, Newtons, ...)
If the header above contains a line with 'inDegrees', this indicates whether rotational values are in degrees (yes) or radians (no).

endheader
time	pelvis_tilt	pelvis_list	pelvis_rotation	pelvis_tx	pelvis_ty	pelvis_tz	hip_flexion_r	hip_adduction_r	hip_rotation_r	knee_angle_r	knee_angle_r_beta	ankle_angle_r	subtalar_angle_r	mtp_angle_r	hip_flexion_l	hip_adduction_l	hip_rotation_l	knee_angle_l	knee_angle_l_beta	ankle_angle_l	subtalar_angle_l	mtp_angle_l	L5_S1_Flex_Ext	L5_S1_Lat_Bending	L5_S1_axial_rotation	L4_L5_Flex_Ext	L4_L5_Lat_Bending	L4_L5_axial_rotation	L3_L4_Flex_Ext	L3_L4_Lat_Bending	L3_L4_axial_rotation	L2_L3_Flex_Ext	L2_L3_Lat_Bending	L2_L3_axial_rotation	L1_L2_Flex_Ext	L1_L2_Lat_Bending	L1_L2_axial_rotation	L1_T12_Flex_Ext	L1_T12_Lat_Bending	L1_T12_axial_rotation	Abs_r3	Abs_r2	Abs_r1	Abs_t1	Abs_t2	neck_flexion	neck_bending	neck_rotation	arm_flex_r	arm_add_r	arm_rot_r	elbow_flex_r	pro_sup_r	wrist_flex_r	wrist_dev_r	arm_flex_l	arm_add_l	arm_rot_l	elbow_flex_l	pro_sup_l	wrist_flex_l	wrist_dev_l
      4.03333333	     42.74941356	      2.75336545	      3.04842467	     -0.71658194	      0.32455138	     -0.36859051	     52.54666271	    -19.49364792	     -9.21280525	     32.18169446	      0.56167653	    -28.26844205	    -16.95300116	      0.00000000	     52.79160546	    -17.87462742	      0.12092285	     33.99114586	      0.59325741	      0.00000000	      0.00000000	      0.00000000	      6.80880980	     -0.36603104	     -0.33284901	     12.64464069	     -0.48682129	     -0.35365207	     11.18619363	     -0.88996788	     -0.35365207	      7.78178872	     -0.88996788	     -0.29124288	      6.32266078	     -0.74641051	     -0.27043982	      3.89055392	     -0.56698209	     -0.24963676	     48.63464754	     -4.14061639	     -1.85120633	      0.00000000	      0.00000000	    -28.29352338	      0.84391129	     -7.12762634	    -94.52064388	    -44.11416220	    -58.79352213	     47.17739636	     89.99559364	      0.00000000	      0.00000000	    -76.57225602	    -43.80372006	    -80.69072929	     35.73519363	     89.99559364	      0.00000000	      0.00000000
      4.06666667	     43.05821571	      3.06840635	      2.84666841	     -0.71677096	      0.32469763	     -0.36774870	     52.40444463	    -19.56823343	     -8.86907973	     32.30971936	      0.56391098	    -28.07135344	    -16.89076194	      0.00000000	     52.27680003	    -17.94568384	     -0.62734164	     34.02583107	      0.59386278	      0.00000000	      0.00000000	      0.00000000	      6.75504824	     -0.40024882	     -0.28834830	     12.54480009	     -0.53233093	     -0.30637007	     11.09786876	     -0.97316498	     -0.30637007	      7.72034464	     -0.97316498	     -0.25230476	      6.27273780	     -0.81618740	     -0.23428299	      3.85983457	     -0.61998542	     -0.21626122	     48.25063409	     -4.52769471	     -1.60370672	      0.00000000	      0.00000000	    -28.27059887	      1.08796030	     -7.19505012	    -94.14957046	    -44.24668053	    -58.19848075	     47.15839068	     89.99559364	      0.00000000	      0.00000000	    -77.20110288	    -44.04512542	    -79.72265345	     35.73351385	     89.99559364	      0.00000000	      0.00000000
      4.10000000	     43.12193533	      3.17824301	      2.77771177	     -0.71679986	      0.32484389	     -0.36745272	     52.31822889	    -19.61708771	     -8.87176442	     32.19165258	      0.56185033	    -28.09657832	    -16.89523545	      0.00000000	     52.14879018	    -17.93157773	     -0.71330428	     34.14790052	      0.59599330	      0.00000000	      0.00000000	      0.00000000	      6.74782584	     -0.41066998	     -0.28059220	     12.53138736	     -0.54619108	     -0.29812921	     11.08600307	     -0.99850300	     -0.29812921	      7.71209015	     -0.99850300	     -0.24551818	      6.26603107	     -0.83743823	     -0.22798116	      3.85570768	     -0.63612780	     -0.21044415	     48.19904517	     -4.64558098	     -1.56056964	      0.00000000	      0.00000000	    -28.25284586	      1.10384069	     -7.16474883	    -94.21073503	    -44.28625552	    -58.00292649	     47.42144185	     89.99559364	      0.00000000	      0.00000000	    -77.31236108	    -44.01168957	    -79.61380488	     35.86939056	     89.99559364	      0.00000000	      0.00000000
      4.13333333	     43.36086028	      3.43990811	      2.61118986	     -0.71692807	      0.32497347	     -0.36679873	     52.19959772	    -19.67674327	     -8.58460179	     32.21754574	      0.56230225	    -28.01168729	    -16.89438017	      0.00000000	     51.75951553	    -17.96738342	     -1.28370786	     34.23301964	      0.59747891	      0.00000000	      0.00000000	      0.00000000	      6.70633628	     -0.43809075	     -0.24788168	     12.45433711	     -0.58266070	     -0.26337429	     11.01783988	     -1.06517385	     -0.26337429	      7.66467174	     -1.06517385	     -0.21689647	      6.22750387	     -0.89335466	     -0.20140387	      3.83200055	     -0.67860257	     -0.18591126	     47.90268945	     -4.95577018	     -1.37864356	      0.00000000	      0.00000000	    -28.23368099	      1.29786398	     -7.19320528	    -94.05032795	    -44.44623589	    -57.42809349	     47.50391631	     89.99559364	      0.00000000	      0.00000000	    -77.81309914	    -44.11842986	    -78.91954390	     36.00995779	     89.99559364	      0.00000000	      0.00000000
      4.16666667	     43.37468456	      3.47564333	      2.58688537	     -0.71691750	      0.32497696	     -0.36652414	     52.17902430	    -19.69011216	     -8.58048053	     32.15931012	      0.56128585	    -28.01817740	    -16.88755450	      0.00000000	     51.71677183	    -17.97098111	     -1.30030963	     34.27473874	      0.59820704	      0.00000000	      0.00000000	      0.00000000	      6.70504865	     -0.44276220	     -0.24895891	     12.45194584	     -0.58887372	     -0.26451884	     11.01572442	     -1.07653200	     -0.26451884	      7.66320010	     -1.07653200	     -0.21783904	      6.22630817	     -0.90288067	     -0.20227911	      3.83126480	     -0.68583864	     -0.18671918	     47.89349198	     -5.00861451	     -1.38463476	      0.00000000	      0.00000000	    -28.22446686	      1.30047420	     -7.19107802	    -94.03294830	    -44.45353702	    -57.37420391	     47.61565215	     89.99559364	      0.00000000	      0.00000000	    -77.81829456	    -44.12337874	    -78.88038302	     36.06708087	     89.99559364	      0.00000000	      0.00000000
      4.20000000	     43.59033818	      3.66644118	      2.50740543	     -0.71705202	      0.32513282	     -0.36620054	     51.96837084	    -19.77639343	     -8.46887084	     32.01290680	      0.55873063	    -28.08452213	    -16.88955598	      0.00000000	     51.44704447	    -17.92322485	     -1.51860477	     34.44332254	      0.60114938	      0.00000000	      0.00000000	      0.00000000	      6.66773374	     -0.46359406	     -0.22916794	     12.38264833	     -0.61658010	     -0.24349093	     10.95441976	     -1.12718260	     -0.24349093	      7.62055289	     -1.12718260	     -0.20052194	      6.19165755	     -0.94536101	     -0.18619895	      3.80994306	     -0.71810720	     -0.17187595	     47.62695535	     -5.24426875	     -1.27456331	      0.00000000	      0.00000000	    -28.20242581	      1.40106401	     -7.21217930	    -94.06294824	    -44.50703936	    -57.00070738	     47.87344643	     89.99559364	      0.00000000	      0.00000000	    -78.13217466	    -44.12856462	    -78.50315760	     36.33899638	     89.99559364	      0.00000000	      0.00000000
      4.23333333	     43.81132942	      3.82649820	      2.44132266	     -0.71722299	      0.32526134	     -0.36582548	     51.76961993	    -19.82821954	     -8.29837843	     31.91555858	      0.55703158	    -28.11013488	    -16.89539107	      0.00000000	     51.17010021	    -17.89070561	     -1.72250675	     34.56606118	      0.60329158	      0.00000000	      0.00000000	      0.00000000	      6.63016996	     -0.48300200	     -0.21380135	     12.31288863	     -0.64239267	     -0.22716394	     10.89270622	     -1.17437107	     -0.22716394	      7.57762124	     -1.17437107	     -0.18707618	      6.15677582	     -0.98493769	     -0.17371360	      3.78847911	     -0.74817011	     -0.16035101	     47.35864099	     -5.46381528	     -1.18909898	      0.00000000	      0.00000000	    -28.18624486	      1.51372118	     -7.26388035	    -93.91942850	    -44.56566912	    -56.70439930	     47.97486729	     89.99559364	      0.00000000	      0.00000000	    -78.39156464	    -44.20407698	    -78.16746590	     36.47979662	     89.99559364	      0.00000000	      0.00000000
